<mxfile host="app.diagrams.net" modified="2020-06-25T13:34:34.599Z" agent="5.0 (Windows NT 10.0; Win64; x64) AppleWebKit/537.36 (KHTML, like Gecko) Chrome/83.0.4103.116 Safari/537.36" etag="Tl1yhZ_DvS13zbSYTi0x" version="13.3.3" type="github">
  <diagram name="Page-1" id="099fd60b-425b-db50-ffb0-6b813814b670">
    <mxGraphModel dx="1422" dy="762" grid="1" gridSize="10" guides="1" tooltips="1" connect="1" arrows="1" fold="1" page="1" pageScale="1" pageWidth="850" pageHeight="1100" background="#ffffff" math="0" shadow="0">
      <root>
        <mxCell id="0" />
        <mxCell id="1" parent="0" />
        <mxCell id="aX00Xra9qSQORJMgKogt-1" value="" style="shape=mxgraph.pid.vessels.settling_tank;html=1;pointerEvents=1;align=center;verticalLabelPosition=bottom;verticalAlign=top;dashed=0;" vertex="1" parent="1">
          <mxGeometry x="370" y="350" width="100" height="80" as="geometry" />
        </mxCell>
        <mxCell id="aX00Xra9qSQORJMgKogt-2" value="" style="shape=mxgraph.pid.agitators.agitator,_stirrer;html=1;pointerEvents=1;align=center;verticalLabelPosition=bottom;verticalAlign=top;dashed=0;" vertex="1" parent="1">
          <mxGeometry x="395" y="310" width="50" height="80" as="geometry" />
        </mxCell>
        <mxCell id="aX00Xra9qSQORJMgKogt-6" style="edgeStyle=orthogonalEdgeStyle;rounded=0;orthogonalLoop=1;jettySize=auto;html=1;entryX=0.01;entryY=0.413;entryDx=0;entryDy=0;entryPerimeter=0;" edge="1" parent="1" source="aX00Xra9qSQORJMgKogt-3" target="aX00Xra9qSQORJMgKogt-1">
          <mxGeometry relative="1" as="geometry" />
        </mxCell>
        <mxCell id="aX00Xra9qSQORJMgKogt-7" value="101" style="edgeLabel;html=1;align=center;verticalAlign=middle;resizable=0;points=[];" vertex="1" connectable="0" parent="aX00Xra9qSQORJMgKogt-6">
          <mxGeometry x="-0.1797" y="3" relative="1" as="geometry">
            <mxPoint as="offset" />
          </mxGeometry>
        </mxCell>
        <mxCell id="aX00Xra9qSQORJMgKogt-3" value="" style="shape=mxgraph.pid.pumps.gas_blower;html=1;pointerEvents=1;align=center;verticalLabelPosition=bottom;verticalAlign=top;dashed=0;" vertex="1" parent="1">
          <mxGeometry x="520" y="490" width="72" height="67" as="geometry" />
        </mxCell>
        <mxCell id="aX00Xra9qSQORJMgKogt-9" value="FI&lt;br&gt;1001" style="html=1;outlineConnect=0;align=center;dashed=0;shape=mxgraph.pid2inst.indicator;mounting=room;overflow=fill;indType=ctrl" vertex="1" parent="1">
          <mxGeometry x="440" y="460" width="30" height="60" as="geometry" />
        </mxCell>
      </root>
    </mxGraphModel>
  </diagram>
</mxfile>
